<svg width="26" height="26" viewBox="0 0 26 26" fill="none" xmlns="http://www.w3.org/2000/svg">
<rect width="26" height="26" fill="#1C1C1C"/>
<g id="&#208;&#156;&#208;&#190;&#208;&#180;&#208;&#176;&#208;&#187;&#209;&#140;&#208;&#189;&#208;&#190;&#208;&#181; &#208;&#190;&#208;&#186;&#208;&#189;&#208;&#190;, &#208;&#186;&#208;&#190;&#209;&#130;&#208;&#190;&#209;&#128;&#208;&#190;&#208;&#181; &#208;&#190;&#209;&#130;&#208;&#186;&#209;&#128;&#209;&#139;&#208;&#178;&#208;&#176;&#208;&#181;&#209;&#130;&#209;&#129;&#209;&#143; &#208;&#191;&#209;&#128;&#208;&#184; &#208;&#189;&#208;&#176;&#208;&#182;&#208;&#176;&#209;&#130;&#208;&#184;&#208;&#184; &#208;&#189;&#208;&#176; &#208;&#186;&#208;&#189;&#208;&#190;&#208;&#191;&#208;&#186;&#209;&#131; &#226;&#128;&#156;&#208;&#161;&#208;&#178;&#209;&#143;&#208;&#183;&#208;&#176;&#209;&#130;&#209;&#140;&#209;&#129;&#209;&#143; &#209;&#129; &#208;&#189;&#208;&#176;&#208;&#188;&#208;&#184;&#226;&#128;&#157;">
<path d="M-769 -273C-769 -274.105 -768.105 -275 -767 -275H4405C4406.1 -275 4407 -274.105 4407 -273V1255C4407 1256.1 4406.1 1257 4405 1257H-767C-768.104 1257 -769 1256.1 -769 1255V-273Z" fill="#404040"/>
<g id="Frame 54">
<path d="M-71 -31H25C42.6731 -31 57 -16.6731 57 0.999998V150H-71V-31Z" fill="white"/>
<g id="Frame 12">
<rect x="-15" y="-15" width="56" height="56" rx="16" fill="#9E00FF"/>
<path id="Vector" d="M1 25L25 1M25 25L1 1" stroke="white" stroke-width="2" stroke-linecap="round" stroke-linejoin="round"/>
</g>
</g>
<path d="M-767 -274H4405V-276H-767V-274ZM4406 -273V1255H4408V-273H4406ZM4405 1256H-767V1258H4405V1256ZM-768 1255V-273H-770V1255H-768ZM-767 1256C-767.552 1256 -768 1255.55 -768 1255H-770C-770 1256.66 -768.657 1258 -767 1258V1256ZM4406 1255C4406 1255.55 4405.55 1256 4405 1256V1258C4406.66 1258 4408 1256.66 4408 1255H4406ZM4405 -274C4405.55 -274 4406 -273.552 4406 -273H4408C4408 -274.657 4406.66 -276 4405 -276V-274ZM-767 -276C-768.657 -276 -770 -274.657 -770 -273H-768C-768 -273.552 -767.552 -274 -767 -274V-276Z" fill="white" fill-opacity="0.1"/>
</g>
</svg>
