<svg width="12" height="12" viewBox="0 0 12 12" fill="none" xmlns="http://www.w3.org/2000/svg">
<rect width="12" height="12" fill="#1C1C1C"/>
<g id="&#208;&#168;&#208;&#184;&#209;&#128;&#208;&#190;&#208;&#186;&#208;&#184;&#208;&#185; &#209;&#141;&#208;&#186;&#209;&#128;&#208;&#176;&#208;&#189;">
<path d="M-1091 -1260C-1091 -1261.1 -1090.1 -1262 -1089 -1262H1203C1204.1 -1262 1205 -1261.1 1205 -1260V1332C1205 1333.1 1204.1 1334 1203 1334H-1089C-1090.1 1334 -1091 1333.1 -1091 1332V-1260Z" fill="#404040"/>
<g id="Desktop - 5">
<g clip-path="url(#clip0_0_1)">
<rect x="-941" y="-1046" width="1996" height="2230" rx="16" fill="#F9EFFF"/>
<rect id="Rectangle 32" x="-287" y="131" width="506" height="1008" rx="32" transform="rotate(-90 -287 131)" fill="#F0D9FF"/>
<rect id="Rectangle 33" x="-311" y="131" width="498" height="1064" rx="32" transform="rotate(-90 -311 131)" fill="#E9C4FF"/>
<g id="Group 40">
<g id="Frame 18">
<rect x="-335" y="-359" width="1112" height="634" rx="32" fill="white"/>
<g id="Frame 6">
<g id="Frame 9">
<rect x="-36" y="-15" width="412" height="42" rx="19" fill="black"/>
<g id="Frame 14">
<rect x="-5" y="-5" width="22" height="22" rx="11" fill="white"/>
<path id="Vector" d="M1 11L11 1M11 11L1 1" stroke="black" stroke-width="2" stroke-linecap="round" stroke-linejoin="round"/>
</g>
<rect x="-36" y="-15" width="412" height="42" rx="19" stroke="black" stroke-width="2"/>
</g>
</g>
</g>
</g>
</g>
</g>
<path d="M-1089 -1261H1203V-1263H-1089V-1261ZM1204 -1260V1332H1206V-1260H1204ZM1203 1333H-1089V1335H1203V1333ZM-1090 1332V-1260H-1092V1332H-1090ZM-1089 1333C-1089.55 1333 -1090 1332.55 -1090 1332H-1092C-1092 1333.66 -1090.66 1335 -1089 1335V1333ZM1204 1332C1204 1332.55 1203.55 1333 1203 1333V1335C1204.66 1335 1206 1333.66 1206 1332H1204ZM1203 -1261C1203.55 -1261 1204 -1260.55 1204 -1260H1206C1206 -1261.66 1204.66 -1263 1203 -1263V-1261ZM-1089 -1263C-1090.66 -1263 -1092 -1261.66 -1092 -1260H-1090C-1090 -1260.55 -1089.55 -1261 -1089 -1261V-1263Z" fill="white" fill-opacity="0.1"/>
</g>
<defs>
<clipPath id="clip0_0_1">
<rect x="-941" y="-1046" width="1996" height="2230" rx="16" fill="white"/>
</clipPath>
</defs>
</svg>
